<mxfile host="65bd71144e">
    <diagram id="PdobvyJQQTg7Rkn2vJvU" name="Halaman-1">
        <mxGraphModel dx="660" dy="322" grid="1" gridSize="10" guides="1" tooltips="1" connect="1" arrows="1" fold="1" page="1" pageScale="1" pageWidth="1200" pageHeight="1100" math="0" shadow="0">
            <root>
                <mxCell id="0"/>
                <mxCell id="1" parent="0"/>
                <mxCell id="2" value="&lt;font face=&quot;Courier New&quot;&gt;users&lt;/font&gt;" style="rounded=0;whiteSpace=wrap;html=1;" vertex="1" parent="1">
                    <mxGeometry x="125" y="44" width="220" height="40" as="geometry"/>
                </mxCell>
                <mxCell id="25" style="edgeStyle=orthogonalEdgeStyle;rounded=1;jumpStyle=line;html=1;entryX=0;entryY=0.5;entryDx=0;entryDy=0;fontFamily=Courier New;elbow=vertical;" edge="1" parent="1" source="3" target="18">
                    <mxGeometry relative="1" as="geometry">
                        <Array as="points">
                            <mxPoint x="755" y="64"/>
                            <mxPoint x="755" y="384"/>
                        </Array>
                    </mxGeometry>
                </mxCell>
                <mxCell id="27" value="&amp;nbsp;1&amp;nbsp; n&amp;nbsp;" style="edgeLabel;html=1;align=center;verticalAlign=middle;resizable=0;points=[];fontFamily=Courier New;labelBorderColor=default;" vertex="1" connectable="0" parent="25">
                    <mxGeometry x="0.7403" y="1" relative="1" as="geometry">
                        <mxPoint x="17" y="1" as="offset"/>
                    </mxGeometry>
                </mxCell>
                <mxCell id="20" style="edgeStyle=orthogonalEdgeStyle;jumpStyle=line;html=1;entryX=0;entryY=0.5;entryDx=0;entryDy=0;fontFamily=Courier New;elbow=vertical;rounded=1;" edge="1" parent="1" source="3" target="17">
                    <mxGeometry relative="1" as="geometry"/>
                </mxCell>
                <mxCell id="21" value="&amp;nbsp;1&amp;nbsp; n&amp;nbsp;" style="edgeLabel;html=1;align=center;verticalAlign=middle;resizable=0;points=[];fontFamily=Courier New;labelBorderColor=default;perimeter=rectanglePerimeter;" vertex="1" connectable="0" parent="20">
                    <mxGeometry x="-0.12" relative="1" as="geometry">
                        <mxPoint x="16" as="offset"/>
                    </mxGeometry>
                </mxCell>
                <mxCell id="3" value="&lt;font face=&quot;Courier New&quot;&gt;videos&lt;/font&gt;" style="rounded=0;whiteSpace=wrap;html=1;" vertex="1" parent="1">
                    <mxGeometry x="405" y="44" width="320" height="40" as="geometry"/>
                </mxCell>
                <mxCell id="5" style="edgeStyle=orthogonalEdgeStyle;html=1;exitX=0;exitY=0.111;exitDx=0;exitDy=0;exitPerimeter=0;elbow=vertical;entryX=0;entryY=0.221;entryDx=0;entryDy=0;entryPerimeter=0;snapToPoint=0;jumpStyle=line;" edge="1" parent="1" source="4" target="7">
                    <mxGeometry relative="1" as="geometry">
                        <mxPoint x="385" y="154" as="targetPoint"/>
                        <Array as="points">
                            <mxPoint x="105" y="97"/>
                            <mxPoint x="105" y="370"/>
                            <mxPoint x="375" y="370"/>
                            <mxPoint x="375" y="119"/>
                        </Array>
                    </mxGeometry>
                </mxCell>
                <mxCell id="22" value="&amp;nbsp;1&amp;nbsp; n&amp;nbsp;" style="edgeLabel;html=1;align=center;verticalAlign=middle;resizable=0;points=[];fontFamily=Courier New;labelBorderColor=default;" vertex="1" connectable="0" parent="5">
                    <mxGeometry x="0.215" relative="1" as="geometry">
                        <mxPoint x="-64" as="offset"/>
                    </mxGeometry>
                </mxCell>
                <mxCell id="30" style="edgeStyle=orthogonalEdgeStyle;rounded=1;jumpStyle=line;html=1;entryX=-0.001;entryY=0.846;entryDx=0;entryDy=0;fontFamily=Courier New;elbow=vertical;exitX=0;exitY=0.112;exitDx=0;exitDy=0;exitPerimeter=0;entryPerimeter=0;" edge="1" parent="1" source="4" target="15">
                    <mxGeometry relative="1" as="geometry">
                        <Array as="points">
                            <mxPoint x="55" y="97"/>
                            <mxPoint x="55" y="450"/>
                            <mxPoint x="720" y="450"/>
                            <mxPoint x="720" y="683"/>
                        </Array>
                    </mxGeometry>
                </mxCell>
                <mxCell id="33" value="&amp;nbsp;1&amp;nbsp; n&amp;nbsp;" style="edgeLabel;html=1;align=center;verticalAlign=middle;resizable=0;points=[];fontFamily=Courier New;labelBorderColor=default;" vertex="1" connectable="0" parent="30">
                    <mxGeometry x="0.0951" y="-2" relative="1" as="geometry">
                        <mxPoint x="-153" y="-3" as="offset"/>
                    </mxGeometry>
                </mxCell>
                <mxCell id="31" style="edgeStyle=orthogonalEdgeStyle;rounded=1;jumpStyle=line;html=1;entryX=-0.003;entryY=0.175;entryDx=0;entryDy=0;fontFamily=Courier New;elbow=vertical;exitX=0;exitY=0.111;exitDx=0;exitDy=0;exitPerimeter=0;entryPerimeter=0;" edge="1" parent="1" source="4" target="16">
                    <mxGeometry relative="1" as="geometry">
                        <Array as="points">
                            <mxPoint x="95" y="97"/>
                            <mxPoint x="95" y="410"/>
                            <mxPoint x="740" y="410"/>
                            <mxPoint x="740" y="420"/>
                        </Array>
                    </mxGeometry>
                </mxCell>
                <mxCell id="34" value="&amp;nbsp;1&amp;nbsp; n&amp;nbsp;" style="edgeLabel;html=1;align=center;verticalAlign=middle;resizable=0;points=[];fontFamily=Courier New;labelBorderColor=default;" vertex="1" connectable="0" parent="31">
                    <mxGeometry x="0.2538" y="-1" relative="1" as="geometry">
                        <mxPoint x="-170" y="-3" as="offset"/>
                    </mxGeometry>
                </mxCell>
                <mxCell id="43" style="edgeStyle=orthogonalEdgeStyle;rounded=1;jumpStyle=line;html=1;entryX=0.001;entryY=0.202;entryDx=0;entryDy=0;fontFamily=Courier New;elbow=vertical;exitX=-0.001;exitY=0.109;exitDx=0;exitDy=0;exitPerimeter=0;entryPerimeter=0;" edge="1" parent="1" source="4" target="35">
                    <mxGeometry relative="1" as="geometry">
                        <Array as="points">
                            <mxPoint x="85" y="97"/>
                            <mxPoint x="85" y="660"/>
                            <mxPoint x="105" y="660"/>
                        </Array>
                    </mxGeometry>
                </mxCell>
                <mxCell id="44" value="&amp;nbsp;n&amp;nbsp; n&amp;nbsp;" style="edgeLabel;html=1;align=center;verticalAlign=middle;resizable=0;points=[];fontFamily=Courier New;labelBorderColor=default;" vertex="1" connectable="0" parent="43">
                    <mxGeometry x="0.6412" y="1" relative="1" as="geometry">
                        <mxPoint y="-9" as="offset"/>
                    </mxGeometry>
                </mxCell>
                <mxCell id="46" style="edgeStyle=orthogonalEdgeStyle;rounded=1;jumpStyle=line;html=1;entryX=0;entryY=0.25;entryDx=0;entryDy=0;fontFamily=Courier New;elbow=vertical;exitX=0;exitY=0.111;exitDx=0;exitDy=0;exitPerimeter=0;" edge="1" parent="1" source="4" target="38">
                    <mxGeometry relative="1" as="geometry">
                        <Array as="points">
                            <mxPoint x="75" y="97"/>
                            <mxPoint x="75" y="530"/>
                            <mxPoint x="435" y="530"/>
                            <mxPoint x="435" y="864"/>
                        </Array>
                    </mxGeometry>
                </mxCell>
                <mxCell id="47" value="&amp;nbsp;1&amp;nbsp; n&amp;nbsp;" style="edgeLabel;html=1;align=center;verticalAlign=middle;resizable=0;points=[];fontFamily=Courier New;labelBorderColor=default;" vertex="1" connectable="0" parent="46">
                    <mxGeometry x="0.577" y="1" relative="1" as="geometry">
                        <mxPoint x="-176" y="-116" as="offset"/>
                    </mxGeometry>
                </mxCell>
                <mxCell id="4" value="&lt;font face=&quot;Courier New&quot;&gt;&amp;nbsp;+&amp;nbsp;&lt;b&gt;uid : string&lt;/b&gt;&lt;br&gt;&amp;nbsp;+ email : string&lt;br&gt;&amp;nbsp;+ display_name : string&lt;br&gt;&amp;nbsp;+ photo_url : string&amp;nbsp;&lt;br&gt;&amp;nbsp;+ created_time : datetime&lt;br&gt;&amp;nbsp;+ phone_number : number&lt;br&gt;&amp;nbsp;+ role : [guru, siswa]&lt;/font&gt;" style="rounded=0;whiteSpace=wrap;html=1;align=left;" vertex="1" parent="1">
                    <mxGeometry x="125" y="84" width="220" height="120" as="geometry"/>
                </mxCell>
                <mxCell id="6" value="&lt;font face=&quot;Courier New&quot;&gt;&amp;nbsp;+ login()&lt;br&gt;&amp;nbsp;+ register()&lt;br&gt;&amp;nbsp;+ update_password()&lt;br&gt;&amp;nbsp;+ update_profile()&lt;br&gt;&amp;nbsp;+ update_image()&lt;/font&gt;" style="rounded=0;whiteSpace=wrap;html=1;align=left;" vertex="1" parent="1">
                    <mxGeometry x="125" y="204" width="220" height="80" as="geometry"/>
                </mxCell>
                <mxCell id="7" value="&lt;font face=&quot;Courier New&quot;&gt;&amp;nbsp;+ i&lt;b style=&quot;&quot;&gt;d : string&lt;/b&gt;&lt;br&gt;&amp;nbsp;+&amp;nbsp;&lt;b style=&quot;&quot;&gt;author : userRef&lt;br&gt;&lt;/b&gt;&amp;nbsp;+&amp;nbsp;&lt;b style=&quot;&quot;&gt;class_refs : array&amp;lt;classRef&amp;gt;&lt;br&gt;&lt;/b&gt;&amp;nbsp;+ thumbnail : string&lt;br&gt;&amp;nbsp;+ title : string&lt;br&gt;&amp;nbsp;+ desc : string&lt;br&gt;&amp;nbsp;+ video_path : string&lt;br&gt;&amp;nbsp;+ created_time : datetime&lt;br&gt;&amp;nbsp;+ updated_time : datetime&lt;/font&gt;&lt;font face=&quot;Courier New&quot;&gt;&lt;br&gt;&lt;/font&gt;" style="rounded=0;whiteSpace=wrap;html=1;align=left;strokeColor=default;glass=0;snapToPoint=1;" vertex="1" parent="1">
                    <mxGeometry x="405" y="84" width="320" height="160" as="geometry"/>
                </mxCell>
                <mxCell id="8" value="&lt;font face=&quot;Courier New&quot;&gt;&amp;nbsp;+ getAllVideoGuru()&lt;br&gt;&amp;nbsp;+ getDetailVideoGuru()&lt;br&gt;&amp;nbsp;+ watchVideo()&lt;br&gt;&amp;nbsp;+ createVideo()&lt;br&gt;&amp;nbsp;+ deleteVideo()&lt;br&gt;&lt;/font&gt;&lt;span style=&quot;font-family: &amp;quot;Courier New&amp;quot;;&quot;&gt;&amp;nbsp;+ updateVideo()&lt;/span&gt;&lt;b&gt;&lt;br&gt;&lt;/b&gt;" style="rounded=0;whiteSpace=wrap;html=1;align=left;" vertex="1" parent="1">
                    <mxGeometry x="405" y="244" width="320" height="110" as="geometry"/>
                </mxCell>
                <mxCell id="14" value="&lt;span style=&quot;font-family: &amp;quot;Courier New&amp;quot;;&quot;&gt;&amp;nbsp;+&amp;nbsp;&lt;/span&gt;&lt;b style=&quot;font-family: &amp;quot;Courier New&amp;quot;;&quot;&gt;id : string&lt;/b&gt;&lt;font face=&quot;Courier New&quot;&gt;&lt;br&gt;&amp;nbsp;+ question : string&lt;/font&gt;&lt;span style=&quot;font-family: &amp;quot;Courier New&amp;quot;;&quot;&gt;&lt;br&gt;&lt;/span&gt;&lt;span style=&quot;font-family: &amp;quot;Courier New&amp;quot;;&quot;&gt;&amp;nbsp;+ created_time : datetime&lt;br&gt;&lt;/span&gt;&lt;span style=&quot;font-family: &amp;quot;Courier New&amp;quot;;&quot;&gt;&amp;nbsp;+ updated_time : datetime&lt;br&gt;&lt;/span&gt;&lt;span style=&quot;font-family: &amp;quot;Courier New&amp;quot;;&quot;&gt;&amp;nbsp;+ quiz_type : [pilihan_ganda, essay]&lt;br&gt;&lt;/span&gt;&lt;span style=&quot;font-family: &amp;quot;Courier New&amp;quot;;&quot;&gt;&amp;nbsp;+ answer_a : string&lt;br&gt;&lt;/span&gt;&lt;span style=&quot;font-family: &amp;quot;Courier New&amp;quot;;&quot;&gt;&amp;nbsp;+ answer_b : string&lt;br&gt;&lt;/span&gt;&lt;span style=&quot;font-family: &amp;quot;Courier New&amp;quot;;&quot;&gt;&amp;nbsp;+ answer_c : string&lt;br&gt;&lt;/span&gt;&lt;span style=&quot;font-family: &amp;quot;Courier New&amp;quot;;&quot;&gt;&amp;nbsp;+ answer_d : string&lt;br&gt;&lt;/span&gt;&lt;span style=&quot;font-family: &amp;quot;Courier New&amp;quot;;&quot;&gt;&amp;nbsp;+ video_timestamp : string&lt;br&gt;&lt;/span&gt;&lt;span style=&quot;font-family: &amp;quot;Courier New&amp;quot;;&quot;&gt;&amp;nbsp;+ answer_pilgan : string&lt;/span&gt;&lt;font face=&quot;Courier New&quot;&gt;&lt;br&gt;&lt;/font&gt;&lt;span style=&quot;font-family: &amp;quot;Courier New&amp;quot;;&quot;&gt;&amp;nbsp;+ answer_essay : string&lt;/span&gt;&lt;font face=&quot;Courier New&quot;&gt;&lt;br&gt;&lt;/font&gt;" style="rounded=0;whiteSpace=wrap;html=1;align=left;strokeColor=default;glass=0;snapToPoint=1;" vertex="1" parent="1">
                    <mxGeometry x="825" y="84" width="320" height="200" as="geometry"/>
                </mxCell>
                <mxCell id="15" value="&lt;span style=&quot;font-family: &amp;quot;Courier New&amp;quot;;&quot;&gt;&amp;nbsp;+&amp;nbsp;&lt;/span&gt;&lt;b style=&quot;font-family: &amp;quot;Courier New&amp;quot;;&quot;&gt;id : string&lt;/b&gt;&lt;span style=&quot;font-family: &amp;quot;Courier New&amp;quot;;&quot;&gt;&lt;br&gt;&amp;nbsp;+ total_quiz : int&lt;br&gt;&lt;/span&gt;&lt;span style=&quot;font-family: &amp;quot;Courier New&amp;quot;;&quot;&gt;&amp;nbsp;+ answer : array&amp;lt;int&amp;gt;&lt;br&gt;&lt;/span&gt;&lt;span style=&quot;font-family: &amp;quot;Courier New&amp;quot;;&quot;&gt;&amp;nbsp;+&amp;nbsp;&lt;b&gt;user_ref : userRef&lt;/b&gt;&lt;/span&gt;&lt;font face=&quot;Courier New&quot;&gt;&lt;br&gt;&lt;/font&gt;" style="rounded=0;whiteSpace=wrap;html=1;align=left;strokeColor=default;glass=0;snapToPoint=1;" vertex="1" parent="1">
                    <mxGeometry x="825" y="624" width="320" height="70" as="geometry"/>
                </mxCell>
                <mxCell id="16" value="&lt;span style=&quot;font-family: &amp;quot;Courier New&amp;quot;;&quot;&gt;&amp;nbsp;+&amp;nbsp;&lt;/span&gt;&lt;b style=&quot;font-family: &amp;quot;Courier New&amp;quot;;&quot;&gt;id : string&lt;/b&gt;&lt;span style=&quot;font-family: &amp;quot;Courier New&amp;quot;;&quot;&gt;&lt;br&gt;&amp;nbsp;+&amp;nbsp;&lt;b&gt;author : userRef&lt;br&gt;&lt;/b&gt;&lt;/span&gt;&lt;span style=&quot;font-family: &amp;quot;Courier New&amp;quot;;&quot;&gt;&amp;nbsp;+ message : string&lt;br&gt;&lt;/span&gt;&lt;span style=&quot;font-family: &amp;quot;Courier New&amp;quot;;&quot;&gt;&amp;nbsp;+ updated_time : datetime&lt;br&gt;&lt;/span&gt;&lt;span style=&quot;font-family: &amp;quot;Courier New&amp;quot;;&quot;&gt;&amp;nbsp;+ created_time : datetime&lt;/span&gt;&lt;font face=&quot;Courier New&quot;&gt;&lt;br&gt;&lt;/font&gt;" style="rounded=0;whiteSpace=wrap;html=1;align=left;strokeColor=default;glass=0;snapToPoint=1;" vertex="1" parent="1">
                    <mxGeometry x="825" y="404" width="320" height="90" as="geometry"/>
                </mxCell>
                <mxCell id="17" value="&lt;font face=&quot;Courier New&quot;&gt;videos -&amp;gt; quiz&lt;/font&gt;" style="rounded=0;whiteSpace=wrap;html=1;" vertex="1" parent="1">
                    <mxGeometry x="825" y="44" width="320" height="40" as="geometry"/>
                </mxCell>
                <mxCell id="18" value="&lt;font face=&quot;Courier New&quot;&gt;videos -&amp;gt; v_discussions&lt;/font&gt;" style="rounded=0;whiteSpace=wrap;html=1;" vertex="1" parent="1">
                    <mxGeometry x="825" y="364" width="320" height="40" as="geometry"/>
                </mxCell>
                <mxCell id="19" value="&lt;font face=&quot;Courier New&quot;&gt;videos -&amp;gt; quiz_answer&lt;/font&gt;" style="rounded=0;whiteSpace=wrap;html=1;" vertex="1" parent="1">
                    <mxGeometry x="825" y="584" width="320" height="40" as="geometry"/>
                </mxCell>
                <mxCell id="23" value="&lt;font face=&quot;Courier New&quot;&gt;&amp;nbsp;+ getAllQuizRefVideo()&lt;br&gt;&lt;/font&gt;&lt;span style=&quot;font-family: &amp;quot;Courier New&amp;quot;;&quot;&gt;&amp;nbsp;+ createQuizRefVideo()&lt;/span&gt;&lt;b&gt;&lt;br&gt;&lt;/b&gt;" style="rounded=0;whiteSpace=wrap;html=1;align=left;" vertex="1" parent="1">
                    <mxGeometry x="825" y="284" width="320" height="50" as="geometry"/>
                </mxCell>
                <mxCell id="24" value="&lt;font face=&quot;Courier New&quot;&gt;&amp;nbsp;+ getAllDiscussRefVideo()&lt;br&gt;&lt;/font&gt;&lt;span style=&quot;font-family: &amp;quot;Courier New&amp;quot;;&quot;&gt;&amp;nbsp;+ createDiscussRefVideo()&lt;br&gt;&lt;/span&gt;&lt;span style=&quot;font-family: &amp;quot;Courier New&amp;quot;;&quot;&gt;&amp;nbsp;+ deleteDiscussRefVideo()&lt;/span&gt;&lt;b&gt;&lt;br&gt;&lt;/b&gt;" style="rounded=0;whiteSpace=wrap;html=1;align=left;" vertex="1" parent="1">
                    <mxGeometry x="825" y="494" width="320" height="60" as="geometry"/>
                </mxCell>
                <mxCell id="32" value="&lt;font face=&quot;Courier New&quot;&gt;&amp;nbsp;+ getAllQuizAnswRefVideo()&lt;br&gt;&lt;/font&gt;&lt;span style=&quot;font-family: &amp;quot;Courier New&amp;quot;;&quot;&gt;&amp;nbsp;+ create&lt;/span&gt;&lt;span style=&quot;font-family: &amp;quot;Courier New&amp;quot;;&quot;&gt;QuizAnsw&lt;/span&gt;&lt;span style=&quot;font-family: &amp;quot;Courier New&amp;quot;;&quot;&gt;RefVideo()&lt;br&gt;&lt;/span&gt;&lt;span style=&quot;font-family: &amp;quot;Courier New&amp;quot;;&quot;&gt;&amp;nbsp;+ updateQuizAnswRefVideo()&lt;/span&gt;&lt;b&gt;&lt;br&gt;&lt;/b&gt;" style="rounded=0;whiteSpace=wrap;html=1;align=left;" vertex="1" parent="1">
                    <mxGeometry x="825" y="694" width="320" height="60" as="geometry"/>
                </mxCell>
                <mxCell id="35" value="&lt;span style=&quot;font-family: &amp;quot;Courier New&amp;quot;;&quot;&gt;&amp;nbsp;+ &lt;b&gt;id : string&lt;/b&gt;&lt;br&gt;&lt;/span&gt;&lt;span style=&quot;font-family: &amp;quot;Courier New&amp;quot;;&quot;&gt;&amp;nbsp;+ &lt;b&gt;owner : array&amp;lt;userRef(role: guru)&amp;gt;&lt;/b&gt;&lt;br&gt;&lt;/span&gt;&lt;span style=&quot;font-family: &amp;quot;Courier New&amp;quot;;&quot;&gt;&amp;nbsp;+ &lt;b&gt;learner : array&amp;lt;userRef(role: siswa)&amp;gt;&lt;/b&gt;&lt;br&gt;&lt;/span&gt;&lt;span style=&quot;font-family: &amp;quot;Courier New&amp;quot;;&quot;&gt;&amp;nbsp;+ class_code : string&lt;br&gt;&lt;/span&gt;&lt;span style=&quot;font-family: &amp;quot;Courier New&amp;quot;;&quot;&gt;&amp;nbsp;+ name : string&lt;br&gt;&lt;/span&gt;&lt;span style=&quot;font-family: &amp;quot;Courier New&amp;quot;;&quot;&gt;&amp;nbsp;+ desc : string&lt;br&gt;&lt;/span&gt;&lt;span style=&quot;font-family: &amp;quot;Courier New&amp;quot;;&quot;&gt;&amp;nbsp;+ room : string&lt;br&gt;&lt;/span&gt;&lt;span style=&quot;font-family: &amp;quot;Courier New&amp;quot;;&quot;&gt;&amp;nbsp;+ subjects : string&lt;br&gt;&lt;/span&gt;&lt;span style=&quot;font-family: &amp;quot;Courier New&amp;quot;;&quot;&gt;&amp;nbsp;+ &lt;b&gt;posts : array&amp;lt;postRef&amp;gt;&lt;/b&gt;&lt;br&gt;&lt;/span&gt;&lt;span style=&quot;font-family: &amp;quot;Courier New&amp;quot;;&quot;&gt;&amp;nbsp;+ background_image_index : int&lt;br&gt;&lt;/span&gt;&lt;span style=&quot;font-family: &amp;quot;Courier New&amp;quot;;&quot;&gt;&amp;nbsp;+ created_time : datetime&lt;br&gt;&lt;/span&gt;&lt;span style=&quot;font-family: &amp;quot;Courier New&amp;quot;;&quot;&gt;&amp;nbsp;+ updated_time : datetime&lt;/span&gt;&lt;font face=&quot;Courier New&quot;&gt;&lt;br&gt;&lt;/font&gt;" style="rounded=0;whiteSpace=wrap;html=1;align=left;strokeColor=default;glass=0;snapToPoint=1;" vertex="1" parent="1">
                    <mxGeometry x="105" y="620" width="300" height="200" as="geometry"/>
                </mxCell>
                <mxCell id="36" value="&lt;font face=&quot;Courier New&quot;&gt;classess&lt;/font&gt;" style="rounded=0;whiteSpace=wrap;html=1;" vertex="1" parent="1">
                    <mxGeometry x="105" y="580" width="300" height="40" as="geometry"/>
                </mxCell>
                <mxCell id="51" style="edgeStyle=orthogonalEdgeStyle;rounded=1;jumpStyle=line;html=1;entryX=-0.002;entryY=0.691;entryDx=0;entryDy=0;entryPerimeter=0;fontFamily=Courier New;elbow=vertical;exitX=-0.001;exitY=0.123;exitDx=0;exitDy=0;exitPerimeter=0;" edge="1" parent="1" source="38" target="35">
                    <mxGeometry relative="1" as="geometry">
                        <Array as="points">
                            <mxPoint x="455" y="849"/>
                            <mxPoint x="455" y="960"/>
                            <mxPoint x="80" y="960"/>
                            <mxPoint x="80" y="758"/>
                        </Array>
                    </mxGeometry>
                </mxCell>
                <mxCell id="57" value="&amp;nbsp;n&amp;nbsp; 1&amp;nbsp;" style="edgeLabel;html=1;align=center;verticalAlign=middle;resizable=0;points=[];fontFamily=Courier New;labelBorderColor=default;" vertex="1" connectable="0" parent="51">
                    <mxGeometry x="-0.1417" y="2" relative="1" as="geometry">
                        <mxPoint x="108" y="-2" as="offset"/>
                    </mxGeometry>
                </mxCell>
                <mxCell id="38" value="&lt;span style=&quot;font-family: &amp;quot;Courier New&amp;quot;;&quot;&gt;&amp;nbsp;+ &lt;b&gt;id : string&lt;/b&gt;&lt;br&gt;&lt;/span&gt;&lt;span style=&quot;font-family: &amp;quot;Courier New&amp;quot;;&quot;&gt;&amp;nbsp;+ &lt;b&gt;author : userRef(role: guru)&lt;/b&gt;&lt;br&gt;&lt;/span&gt;&lt;span style=&quot;font-family: &amp;quot;Courier New&amp;quot;;&quot;&gt;&amp;nbsp;+ &lt;b&gt;video_ref : array&amp;lt;videoRef&amp;gt;&lt;/b&gt;&lt;br&gt;&lt;/span&gt;&lt;span style=&quot;font-family: &amp;quot;Courier New&amp;quot;;&quot;&gt;&amp;nbsp;+ title: string&lt;br&gt;&lt;/span&gt;&lt;span style=&quot;font-family: &amp;quot;Courier New&amp;quot;;&quot;&gt;&amp;nbsp;&lt;/span&gt;&lt;span style=&quot;font-family: &amp;quot;Courier New&amp;quot;;&quot;&gt;+ desc : string&lt;br&gt;&lt;/span&gt;&lt;span style=&quot;font-family: &amp;quot;Courier New&amp;quot;;&quot;&gt;&amp;nbsp;&lt;/span&gt;&lt;span style=&quot;font-family: &amp;quot;Courier New&amp;quot;;&quot;&gt;+ created_time : datetime&lt;br&gt;&lt;/span&gt;&lt;span style=&quot;font-family: &amp;quot;Courier New&amp;quot;;&quot;&gt;&amp;nbsp;+ updated_time : datetime&lt;/span&gt;&lt;font face=&quot;Courier New&quot;&gt;&lt;br&gt;&lt;/font&gt;" style="rounded=0;whiteSpace=wrap;html=1;align=left;strokeColor=default;glass=0;snapToPoint=1;" vertex="1" parent="1">
                    <mxGeometry x="475" y="834" width="300" height="120" as="geometry"/>
                </mxCell>
                <mxCell id="52" style="edgeStyle=orthogonalEdgeStyle;rounded=1;jumpStyle=line;html=1;entryX=0;entryY=0.5;entryDx=0;entryDy=0;fontFamily=Courier New;elbow=vertical;exitX=0;exitY=0.5;exitDx=0;exitDy=0;" edge="1" parent="1" source="39" target="41">
                    <mxGeometry relative="1" as="geometry">
                        <Array as="points">
                            <mxPoint x="455" y="814"/>
                            <mxPoint x="455" y="764"/>
                            <mxPoint x="800" y="764"/>
                            <mxPoint x="800" y="814"/>
                        </Array>
                    </mxGeometry>
                </mxCell>
                <mxCell id="53" value="&amp;nbsp;1&amp;nbsp; n&amp;nbsp;" style="edgeLabel;html=1;align=center;verticalAlign=middle;resizable=0;points=[];fontFamily=Courier New;labelBorderColor=default;" vertex="1" connectable="0" parent="52">
                    <mxGeometry x="0.0638" relative="1" as="geometry">
                        <mxPoint x="94" as="offset"/>
                    </mxGeometry>
                </mxCell>
                <mxCell id="39" value="&lt;font face=&quot;Courier New&quot;&gt;posts&lt;/font&gt;" style="rounded=0;whiteSpace=wrap;html=1;" vertex="1" parent="1">
                    <mxGeometry x="475" y="794" width="300" height="40" as="geometry"/>
                </mxCell>
                <mxCell id="41" value="&lt;font face=&quot;Courier New&quot;&gt;posts -&amp;gt; p_discussions&lt;/font&gt;" style="rounded=0;whiteSpace=wrap;html=1;" vertex="1" parent="1">
                    <mxGeometry x="825" y="794" width="320" height="40" as="geometry"/>
                </mxCell>
                <mxCell id="42" value="&lt;font face=&quot;Courier New&quot;&gt;&amp;nbsp;+ getAllDiscussRefPost()&lt;br&gt;&lt;/font&gt;&lt;span style=&quot;font-family: &amp;quot;Courier New&amp;quot;;&quot;&gt;&amp;nbsp;+ createDiscussRef&lt;/span&gt;&lt;span style=&quot;font-family: &amp;quot;Courier New&amp;quot;;&quot;&gt;Post&lt;/span&gt;&lt;span style=&quot;font-family: &amp;quot;Courier New&amp;quot;;&quot;&gt;()&lt;br&gt;&lt;/span&gt;&lt;span style=&quot;font-family: &amp;quot;Courier New&amp;quot;;&quot;&gt;&amp;nbsp;+ deleteDiscussRef&lt;/span&gt;&lt;span style=&quot;font-family: &amp;quot;Courier New&amp;quot;;&quot;&gt;Post&lt;/span&gt;&lt;span style=&quot;font-family: &amp;quot;Courier New&amp;quot;;&quot;&gt;()&lt;/span&gt;&lt;b&gt;&lt;br&gt;&lt;/b&gt;" style="rounded=0;whiteSpace=wrap;html=1;align=left;" vertex="1" parent="1">
                    <mxGeometry x="825" y="924" width="320" height="60" as="geometry"/>
                </mxCell>
                <mxCell id="55" value="&lt;font face=&quot;Courier New&quot;&gt;&amp;nbsp;+ getAllPostRefClass()&lt;br&gt;&lt;/font&gt;&lt;span style=&quot;font-family: &amp;quot;Courier New&amp;quot;;&quot;&gt;&amp;nbsp;+ createPost&lt;/span&gt;&lt;span style=&quot;font-family: &amp;quot;Courier New&amp;quot;;&quot;&gt;()&lt;br&gt;&lt;/span&gt;&lt;span style=&quot;font-family: &amp;quot;Courier New&amp;quot;;&quot;&gt;&amp;nbsp;+ deletePost&lt;/span&gt;&lt;span style=&quot;font-family: &amp;quot;Courier New&amp;quot;;&quot;&gt;()&lt;br&gt;&lt;/span&gt;&lt;span style=&quot;font-family: &amp;quot;Courier New&amp;quot;;&quot;&gt;&amp;nbsp;+ updatePost()&lt;/span&gt;&lt;b&gt;&lt;br&gt;&lt;/b&gt;" style="rounded=0;whiteSpace=wrap;html=1;align=left;" vertex="1" parent="1">
                    <mxGeometry x="475" y="954" width="300" height="76" as="geometry"/>
                </mxCell>
                <mxCell id="56" value="&lt;font face=&quot;Courier New&quot;&gt;&amp;nbsp;+ getAllClassRefUser()&lt;br&gt;&lt;/font&gt;&lt;span style=&quot;font-family: &amp;quot;Courier New&amp;quot;;&quot;&gt;&amp;nbsp;+ getDetailClass()&lt;br&gt;&lt;/span&gt;&lt;span style=&quot;font-family: &amp;quot;Courier New&amp;quot;;&quot;&gt;&amp;nbsp;+ registerLearnerToClass()&lt;br&gt;&lt;/span&gt;&lt;span style=&quot;font-family: &amp;quot;Courier New&amp;quot;;&quot;&gt;&amp;nbsp;+ registerTeacherToClass()&lt;br&gt;&lt;/span&gt;&lt;span style=&quot;font-family: &amp;quot;Courier New&amp;quot;;&quot;&gt;&amp;nbsp;+ updateClass()&lt;br&gt;&lt;/span&gt;&lt;span style=&quot;font-family: &amp;quot;Courier New&amp;quot;;&quot;&gt;&amp;nbsp;+ deleteClass()&lt;/span&gt;&lt;b&gt;&lt;br&gt;&lt;/b&gt;" style="rounded=0;whiteSpace=wrap;html=1;align=left;" vertex="1" parent="1">
                    <mxGeometry x="105" y="820" width="300" height="110" as="geometry"/>
                </mxCell>
                <mxCell id="28" style="edgeStyle=orthogonalEdgeStyle;rounded=1;jumpStyle=line;html=1;entryX=0;entryY=0.5;entryDx=0;entryDy=0;fontFamily=Courier New;elbow=vertical;" edge="1" parent="1" source="3" target="19">
                    <mxGeometry relative="1" as="geometry">
                        <Array as="points">
                            <mxPoint x="745" y="64"/>
                            <mxPoint x="745" y="604"/>
                        </Array>
                    </mxGeometry>
                </mxCell>
                <mxCell id="29" value="&amp;nbsp;1&amp;nbsp; n&amp;nbsp;" style="edgeLabel;html=1;align=center;verticalAlign=middle;resizable=0;points=[];fontFamily=Courier New;labelBorderColor=default;" vertex="1" connectable="0" parent="28">
                    <mxGeometry x="0.7744" y="-3" relative="1" as="geometry">
                        <mxPoint x="33" y="-3" as="offset"/>
                    </mxGeometry>
                </mxCell>
                <mxCell id="58" style="edgeStyle=orthogonalEdgeStyle;rounded=1;jumpStyle=line;html=1;entryX=0.001;entryY=0.326;entryDx=0;entryDy=0;fontFamily=Courier New;elbow=vertical;exitX=0.001;exitY=0.113;exitDx=0;exitDy=0;exitPerimeter=0;entryPerimeter=0;" edge="1" parent="1" source="4" target="60">
                    <mxGeometry relative="1" as="geometry">
                        <mxPoint x="125.22000000000003" y="97.56000000000006" as="sourcePoint"/>
                        <mxPoint x="824.0400000000004" y="892.5900000000001" as="targetPoint"/>
                        <Array as="points">
                            <mxPoint x="65" y="98"/>
                            <mxPoint x="65" y="490"/>
                            <mxPoint x="690" y="490"/>
                            <mxPoint x="690" y="710"/>
                            <mxPoint x="790" y="710"/>
                            <mxPoint x="790" y="863"/>
                            <mxPoint x="825" y="863"/>
                        </Array>
                    </mxGeometry>
                </mxCell>
                <mxCell id="59" value="&amp;nbsp;1&amp;nbsp; n&amp;nbsp;" style="edgeLabel;html=1;align=center;verticalAlign=middle;resizable=0;points=[];fontFamily=Courier New;labelBorderColor=default;" vertex="1" connectable="0" parent="58">
                    <mxGeometry x="0.1447" y="1" relative="1" as="geometry">
                        <mxPoint x="-260" y="1" as="offset"/>
                    </mxGeometry>
                </mxCell>
                <mxCell id="60" value="&lt;span style=&quot;font-family: &amp;quot;Courier New&amp;quot;;&quot;&gt;&amp;nbsp;+&amp;nbsp;&lt;/span&gt;&lt;b style=&quot;font-family: &amp;quot;Courier New&amp;quot;;&quot;&gt;id : string&lt;/b&gt;&lt;span style=&quot;font-family: &amp;quot;Courier New&amp;quot;;&quot;&gt;&lt;br&gt;&amp;nbsp;+&amp;nbsp;&lt;b&gt;author : userRef&lt;br&gt;&lt;/b&gt;&lt;/span&gt;&lt;span style=&quot;font-family: &amp;quot;Courier New&amp;quot;;&quot;&gt;&amp;nbsp;+ message : string&lt;br&gt;&lt;/span&gt;&lt;span style=&quot;font-family: &amp;quot;Courier New&amp;quot;;&quot;&gt;&amp;nbsp;+ updated_time : datetime&lt;br&gt;&lt;/span&gt;&lt;span style=&quot;font-family: &amp;quot;Courier New&amp;quot;;&quot;&gt;&amp;nbsp;+ created_time : datetime&lt;/span&gt;&lt;font face=&quot;Courier New&quot;&gt;&lt;br&gt;&lt;/font&gt;" style="rounded=0;whiteSpace=wrap;html=1;align=left;strokeColor=default;glass=0;snapToPoint=1;" vertex="1" parent="1">
                    <mxGeometry x="825" y="834" width="320" height="90" as="geometry"/>
                </mxCell>
            </root>
        </mxGraphModel>
    </diagram>
</mxfile>